#!OML:ASF X:\für Bonn\!DataBase\2005_08_10_Bjorn_Final\c3d\bjorn.ASF
:FULLY-SPECIFIED
:DEGREES
264
root 0.106008 19.2241 -0.0175224 -181.488 25.4759 183.486
lowerback -7.34777 3.26613 2.59401
upperback 5.8398 4.61035 -2.97095
thorax 10.8716 2.65355 -3.8632
lowerneck 3.63401 -0.331008 8.10006
upperneck 19.0929 1.41801 -2.10185
head 5.21951 1.76295 -1.90801
rclavicle -1.2921e-014 -2.54444e-014
rhumerus -276.336 14.4134 263.659
rradius 17.077
rwrist 43.3583
rhand -28.4705 15.8432
rfingers 7.12502
rthumb -1.84036 -14.1286
lclavicle -1.2921e-014 -2.54444e-014
lhumerus 58.0004 -17.665 88.0164
lradius 50.8379
lwrist 32.3625
lhand -46.7695 -5.80203
lfingers 7.12502
lthumb -19.4857 23.2416
rfemur 1.89378 7.45248 6.01277
rtibia 35.779
rfoot 10.4667 19.1291
rtoes -20.9789
lfemur -9.61444 3.06294 -10.993
ltibia 28.4635
lfoot -9.12611 -12.76
ltoes -1.10127
265
root 0.125763 19.2159 0.00420905 -181.579 25.4711 183.491
lowerback -7.26655 3.30844 2.61075
upperback 5.86236 4.67166 -2.97837
thorax 10.8567 2.68685 -3.87315
lowerneck 3.80111 -0.384937 8.11175
upperneck 18.9601 1.34327 -2.00575
head 5.14688 1.73076 -1.88304
rclavicle 1.13307e-014 -1.59028e-015
rhumerus -276.633 14.2825 264.887
rradius 17.8385
rwrist 41.8031
rhand -27.5591 15.4888
rfingers 7.12502
rthumb -0.96004 -14.4888
lclavicle 1.13307e-014 -1.59028e-015
lhumerus 57.3523 -18.0145 87.5016
lradius 51.4408
lwrist 31.0603
lhand -46.5385 -6.49011
lfingers 7.12502
lthumb -19.2635 22.5758
rfemur 2.02918 7.44944 6.06716
rtibia 35.7059
rfoot 10.4345 19.2493
rtoes -20.6745
lfemur -9.62742 2.91088 -10.9162
ltibia 28.6002
lfoot -9.16986 -12.6268
ltoes -1.34239
266
root 0.146479 19.2071 0.0271088 -181.67 25.4576 183.516
lowerback -7.15952 3.33708 2.61682
upperback 5.87161 4.71169 -2.96358
thorax 10.8057 2.70666 -3.85868
lowerneck 3.97771 -0.443726 8.1305
upperneck 18.848 1.27333 -1.95805
head 5.07947 1.7001 -1.87426
rclavicle -8.18993e-014 5.24792e-014
rhumerus -277.024 14.1815 266.266
rradius 18.7555
rwrist 40.1192
rhand -26.5277 14.9873
rfingers 7.12502
rthumb 0.0360785 -14.9924
lclavicle -8.18993e-014 5.24792e-014
lhumerus 56.648 -18.3723 86.8793
lradius 52.1076
lwrist 29.7811
lhand -46.4381 -7.05305
lfingers 7.12502
lthumb -19.167 22.0225
rfemur 2.17542 7.42145 6.14379
rtibia 35.6308
rfoot 10.4512 19.3762
rtoes -20.1996
lfemur -9.63722 2.78927 -10.8091
ltibia 28.7393
lfoot -9.19649 -12.5176
ltoes -1.52141
267
root 0.167847 19.1978 0.0506936 -181.769 25.4445 183.522
lowerback -7.05764 3.37821 2.61463
upperback 5.8835 4.77247 -2.96552
thorax 10.7639 2.73734 -3.85375
lowerneck 4.11749 -0.501798 8.15616
upperneck 18.7618 1.19615 -1.86279
head 5.02617 1.67002 -1.8515
rclavicle -7.13637e-014 -7.95139e-015
rhumerus -277.517 14.0541 267.59
rradius 19.809
rwrist 38.4604
rhand -25.4974 14.433
rfingers 7.12502
rthumb 1.03115 -15.5443
lclavicle -7.13637e-014 -7.95139e-015
lhumerus 55.9141 -18.7879 86.2015
lradius 52.8437
lwrist 28.4891
lhand -46.3817 -7.51754
lfingers 7.12502
lthumb -19.1128 21.5634
rfemur 2.32119 7.39658 6.19956
rtibia 35.5509
rfoot 10.4645 19.5056
rtoes -19.6759
lfemur -9.64813 2.64437 -10.7181
ltibia 28.8854
lfoot -9.21824 -12.4109
ltoes -1.69368
268
root 0.190213 19.1886 0.0759206 -181.879 25.4157 183.517
lowerback -6.95609 3.39712 2.58098
upperback 5.91308 4.80701 -2.95575
thorax 10.7353 2.75322 -3.82279
lowerneck 4.23845 -0.541534 8.18305
upperneck 18.6468 1.14249 -1.81521
head 4.96822 1.6451 -1.84325
rclavicle -1.68967e-014 4.77083e-014
rhumerus -278.109 13.9764 268.862
rradius 21.0167
rwrist 36.908
rhand -24.586 13.9299
rfingers 7.12502
rthumb 1.91141 -16.0412
lclavicle -1.68967e-014 4.77083e-014
lhumerus 55.1489 -19.2149 85.4549
lradius 53.6908
lwrist 27.2257
lhand -46.3774 -7.91589
lfingers 7.12502
lthumb -19.1087 21.1654
rfemur 2.47329 7.3552 6.25238
rtibia 35.4714
rfoot 10.4371 19.6581
rtoes -19.3392
lfemur -9.66405 2.53095 -10.6302
ltibia 29.0308
lfoot -9.2341 -12.329
ltoes -1.81044
269
root 0.212694 19.1793 0.101318 -181.973 25.3631 183.526
lowerback -6.86063 3.40909 2.56358
upperback 5.9268 4.82885 -2.95013
thorax 10.6932 2.76346 -3.80785
lowerneck 4.41593 -0.579253 8.24343
upperneck 18.5013 1.09944 -1.77294
head 4.89252 1.62727 -1.84203
rclavicle 4.41302e-014 -8.26944e-014
rhumerus -278.827 13.8944 270.095
rradius 22.3361
rwrist 35.424
rhand -23.8329 13.4692
rfingers 7.12502
rthumb 2.63872 -16.4943
lclavicle 4.41302e-014 -8.26944e-014
lhumerus 54.3334 -19.6764 84.6719
lradius 54.5705
lwrist 25.9542
lhand -46.3578 -8.29657
lfingers 7.12502
lthumb -19.0898 20.7866
rfemur 2.63327 7.29409 6.3202
rtibia 35.3828
rfoot 10.4013 19.8406
rtoes -18.9354
lfemur -9.70036 2.43211 -10.5257
ltibia 29.1814
lfoot -9.25024 -12.2921
ltoes -2.01796
270
root 0.235958 19.1693 0.127137 -182.09 25.3241 183.497
lowerback -6.76578 3.42395 2.51091
upperback 5.95534 4.86075 -2.94645
thorax 10.6659 2.77707 -3.7731
lowerneck 4.50043 -0.608618 8.31035
upperneck 18.4178 1.06239 -1.74949
head 4.85163 1.61277 -1.84716
rclavicle -5.725e-014 -2.38542e-014
rhumerus -279.629 13.8213 271.232
rradius 23.7347
rwrist 34.1223
rhand -23.0332 13.0028
rfingers 7.12502
rthumb 3.41108 -16.9496
lclavicle -5.725e-014 -2.38542e-014
lhumerus 53.4366 -20.1679 83.9083
lradius 55.5584
lwrist 24.542
lhand -46.3252 -8.54497
lfingers 7.12502
lthumb -19.0584 20.5413
rfemur 2.79342 7.24546 6.35035
rtibia 35.296
rfoot 10.3533 20.0216
rtoes -18.5845
lfemur -9.72593 2.34001 -10.4571
ltibia 29.3312
lfoot -9.2616 -12.237
ltoes -2.38441
271
root 0.259667 19.1601 0.153281 -182.185 25.2792 183.504
lowerback -6.67694 3.42773 2.47457
upperback 5.97421 4.87119 -2.92165
thorax 10.6285 2.77931 -3.72849
lowerneck 4.61025 -0.628034 8.37379
upperneck 18.3257 1.04423 -1.73977
head 4.80489 1.60656 -1.85556
rclavicle 5.82439e-014 2.22639e-014
rhumerus -280.536 13.8274 272.518
rradius 25.2228
rwrist 32.4512
rhand -22.262 12.5829
rfingers 7.12502
rthumb 4.1558 -17.3563
lclavicle 5.82439e-014 2.22639e-014
lhumerus 52.4417 -20.6619 83.1269
lradius 56.5718
lwrist 23.1394
lhand -46.2233 -9.12101
lfingers 7.12502
lthumb -18.9604 19.9749
rfemur 2.94604 7.19759 6.42178
rtibia 35.2001
rfoot 10.2667 20.2585
rtoes -18.3067
lfemur -9.7648 2.22345 -10.3519
ltibia 29.4872
lfoot -9.27641 -12.1684
ltoes -2.51855
